<svg id="Layer_1" data-name="Layer 1" xmlns="http://www.w3.org/2000/svg" viewBox="0 0 1040.67 319.48"><defs><style>.cls-1{fill:#fff;}</style></defs><path class="cls-1" d="M1030.37,396.84a16,16,0,0,0-13.6,1.13l-16-6.2a1.59,1.59,0,0,0-2.06.91l-2,5.08a1.59,1.59,0,0,0,.91,2.06l12.15,4.7a20.69,20.69,0,0,0-2,3.87c-3.78,9.73.2,20.35,8.88,23.71s18.77-1.81,22.54-11.54S1039,400.21,1030.37,396.84ZM1024.53,427a2,2,0,1,1-1.41,3.64L1013,426.69a2,2,0,0,1,1.41-3.65Zm4.43-26.5c1.16.46,1.09,3.44-.16,6.67s-3.21,5.47-4.37,5-1.1-3.43.15-6.66S1027.79,400,1029,400.48Z" transform="translate(0 -113.65)"/><path class="cls-1" d="M988.66,388.84a1.26,1.26,0,0,0-1.52.52L957.91,378a605.89,605.89,0,0,0-259.72-62c-39.79-.44-80.05,3.13-119,6.57-16.35,1.45-33.26,2.94-49.9,4.12-58,4.11-109.45,4-157.25-.21-56.19-5-106.11-15.58-152.62-32.37C120.77,258.55,42,193.46,0,113.65V120C43,198.2,121.09,261.86,218.4,297c46.76,16.88,96.93,27.52,153.38,32.54,48,4.26,99.55,4.33,157.73.21,16.66-1.18,33.58-2.68,49.94-4.12,38.88-3.44,79.07-7,118.71-6.56a603,603,0,0,1,255.39,60.19l-.63.4,6.6,2.55L986,392.42a1.25,1.25,0,0,0,.77,1.41l8.49,3.28,1.93-5Z" transform="translate(0 -113.65)"/></svg>