<svg id="Layer_2" data-name="Layer 2" xmlns="http://www.w3.org/2000/svg" viewBox="0 0 81.45 216.53"><defs><style>.cls-1{fill:#fff;}.cls-2{fill:snow;}</style></defs><path class="cls-1" d="M326.5,274.21c-8.65-5.84-19.89-4.33-25.1,3.38s-2.41,18.7,6.24,24.55a20.73,20.73,0,0,0,3.82,2L304.17,315a1.59,1.59,0,0,0,.42,2.21l4.52,3.05a1.6,1.6,0,0,0,2.21-.43l9.61-14.22a16,16,0,0,0,11.8-6.83C337.94,291.05,335.15,280.06,326.5,274.21Zm-21.84,12.15a2,2,0,0,1-3.24-2.19l6.1-9a2,2,0,1,1,3.23,2.19ZM323,294.94c-2.87-1.94-4.63-4.35-3.93-5.38s3.59-.31,6.46,1.63,4.63,4.35,3.93,5.38S325.91,296.87,323,294.94Z" transform="translate(-253.91 -270.65)"/><path class="cls-2" d="M255.05,487.19h3c-.12-4.17-.3-8.33-.49-12.47-.41-9.46-.84-19.25-.57-28.64a183.31,183.31,0,0,1,32.12-98l-.1-.07,12.49-18.48a1.26,1.26,0,0,0,1.54-.45l5.1-7.55-4.42-3-5.1,7.55a1.24,1.24,0,0,0,.16,1.59c.36.35-15.82,24.12-17.33,26.65a202.74,202.74,0,0,0-14.11,28.05A185.5,185.5,0,0,0,254,446c-.27,9.5.16,19.35.58,28.86C254.75,479,254.93,483.07,255.05,487.19Z" transform="translate(-253.91 -270.65)"/></svg>