<svg id="Layer_1" data-name="Layer 1" xmlns="http://www.w3.org/2000/svg" viewBox="0 0 962.66 702.97"><defs><style>.cls-1{fill:#006;}.cls-2{fill:#fff;}</style></defs><path class="cls-1" d="M141.8,224l-1.66-22.27h3.13l3.87,10.67c4.6,8.1,11.6,12.7,19.51,12.7,10.68,0,18.41-6.62,18.41-16,0-10.12-8.28-14.73-20.43-18.78-11-3.86-22.46-9.2-22.46-23.38,0-13.07,11.23-23,26.69-23A45.09,45.09,0,0,1,185.43,147l5.89-1.84,1.1,22.09h-3.13l-7.54-15.46A22.2,22.2,0,0,0,168.31,147c-9.94,0-15.83,5.53-15.83,13.81,0,9.76,7.91,13.07,19.33,17.12,12.33,4.42,24.11,9.39,24.11,24.85,0,13.44-11.41,25.4-30.56,25.4A65.55,65.55,0,0,1,141.8,224Z" transform="translate(-81.41 -102.9)"/><path class="cls-1" d="M205.86,186.42c0-23.75,18-42.53,41.61-42.53,23.37,0,40.68,17.86,40.68,41.24,0,24.3-17.86,43.07-41.24,43.07C223.17,228.2,205.86,210.16,205.86,186.42Zm67.56,1.47c0-14-3.13-26.69-10.12-33.69A22.79,22.79,0,0,0,246.73,147c-15.83,0-26.14,16.94-26.14,36.64,0,14.54,3.31,27.42,10.49,34.6a22.12,22.12,0,0,0,16.39,6.81C262.74,225.07,273.42,208.14,273.42,187.89Z" transform="translate(-81.41 -102.9)"/><path class="cls-1" d="M296.43,222.87l4.79-.19c4.79-.37,6.63-.73,6.63-2.76V166c0-9.94-1.29-11.78-6.63-12.7l-5.89-.92.18-1.84,25-6.26-.37,15.28.55.19c7.92-6.63,18.41-15.65,30.74-15.65,5.71,0,10.86,1.66,14.36,5.34,4.24,4.23,6.08,10.49,6.08,18.59V220.1c0,1.29.37,1.85,7.73,2.58l4.6.19.55,2.76H347.61l.55-2.76,4.79-.19c5.52-.37,6.44-1.29,6.44-2.76V172.06c0-13.07-5.89-18.41-16.75-18.41-8.65,0-16.39,4.42-22.28,9.57v57.07c0,1.47,1.11,1.84,7.74,2.39l4.78.19.55,2.76H295.88Z" transform="translate(-81.41 -102.9)"/><path class="cls-1" d="M387.37,251c0-10.86,11.42-19,20.62-22.64V228c-10.49-1.1-17.86-6.07-17.86-13.07,0-8.84,10.31-15.83,19.33-18.22a.66.66,0,0,0,.19-.37,25.43,25.43,0,0,1-16.75-23.75c0-16.2,13.62-28.53,30.92-28.53a35.14,35.14,0,0,1,20.07,6.26l22.64-3L465.42,156l-17.85-2.21-.19.74a23.55,23.55,0,0,1,7.18,16.75c0,15.47-13.8,27.62-31.47,27.62A62.32,62.32,0,0,1,413,197.83c-5.71,1.29-11.23,5.15-11.23,10.31,0,5.52,4.79,8.1,14.36,8.1,4.79,0,15.28-.55,20.8-.55,17.12,0,27.06,8.46,27.06,21,0,19.88-19,34.79-46,34.79C399.15,271.46,387.37,263.55,387.37,251Zm67.56-6.44c0-9.76-6.44-16-22.46-16.57-5.89-.18-12,.37-20.8.92-5.7,2.21-13.8,9.57-13.8,18.41,0,12,12,19.88,28,19.88C441.68,267.23,454.93,257.1,454.93,244.59Zm-13.25-72c0-15.28-5.89-25.77-18-25.77-10.13,0-17.49,9.94-17.49,23.75,0,15.46,7.18,25.58,17.49,25.58C434.31,196.17,441.68,187,441.68,172.61Z" transform="translate(-81.41 -102.9)"/><path class="cls-1" d="M475,224l-1.66-22.27h3.13l3.87,10.67c4.6,8.1,11.6,12.7,19.51,12.7,10.68,0,18.41-6.62,18.41-16,0-10.12-8.28-14.73-20.43-18.78-11.05-3.86-22.46-9.2-22.46-23.38,0-13.07,11.23-23,26.69-23A45.09,45.09,0,0,1,518.63,147l5.89-1.84,1.1,22.09h-3.13L515,151.81A22.23,22.23,0,0,0,501.51,147c-9.94,0-15.83,5.53-15.83,13.81,0,9.76,7.91,13.07,19.32,17.12,12.34,4.42,24.12,9.39,24.12,24.85,0,13.44-11.41,25.4-30.56,25.4A65.55,65.55,0,0,1,475,224Z" transform="translate(-81.41 -102.9)"/><path class="cls-1" d="M638.39,217.21,638,217c-6.81,7-14.54,13.25-23.38,13.25-11,0-19.7-8.1-19.7-18.41,0-13.07,10.49-21.72,44.55-30l.18-6.26c.56-18.59-7.73-23.93-18.22-23.93-7.36,0-15.28,4.23-15.28,6.26,0,1.29,4.24,4.23,4.24,8.83,0,3.87-3.13,7.37-8.1,7.37-4.61,0-8.1-2.76-8.1-7.18,0-9,20.43-20.44,34.79-20.44,16.57,0,24.48,6.45,23.38,29.09l-1.84,39.21c-.19,5.52,1.84,7.55,5.52,7.55,2.76,0,5.7-2.4,8.65-5.16l1.47,1.66c-3.86,4.78-9.39,11.6-16.2,11.6C643.54,230.47,638.75,225.86,638.39,217.21Zm0-3.5.92-28.9c-25.59,6.26-31.48,13.81-31.48,23.57,0,8.46,5.7,13.62,13.07,13.62C627.52,222,632.86,218.87,638.39,213.71Z" transform="translate(-81.41 -102.9)"/><path class="cls-1" d="M675.39,120.57c0-5.52-1.11-7.18-5.71-8.1L662.5,111l.19-2,25.22-6.07v59.46l.55.36c7.18-8.28,16.56-15.28,28.35-15.28,18.59,0,33,16,33,38.85,0,26.87-20.07,44.54-40.69,44.54a53.81,53.81,0,0,1-23.37-5.89h-.37l-8.47,7h-1.47Zm60.19,70.13c0-19.51-10.31-34.42-25.77-34.42-9.2,0-16.38,5-21.9,10.86v45.29c4.78,8.1,13.43,14.72,23.19,14.72C726,227.15,735.58,211.69,735.58,190.7Z" transform="translate(-81.41 -102.9)"/><path class="cls-1" d="M758.59,189.05c0-23.75,18-42.53,41.61-42.53,23.37,0,40.68,17.86,40.68,41.24,0,24.3-17.86,43.07-41.24,43.07C775.9,230.83,758.59,212.79,758.59,189.05Zm67.56,1.47c0-14-3.13-26.69-10.12-33.69a22.79,22.79,0,0,0-16.57-7.18c-15.83,0-26.14,16.94-26.14,36.64,0,14.54,3.31,27.42,10.49,34.6a22.12,22.12,0,0,0,16.39,6.81C815.47,227.7,826.15,210.77,826.15,190.52Z" transform="translate(-81.41 -102.9)"/><path class="cls-1" d="M909.54,215.37h-.37c-7.91,6.81-18.22,15.46-30.37,15.46a21.05,21.05,0,0,1-14.91-5.52c-4-4.42-5.71-10.68-5.71-18.59v-52.1c0-1.65-.18-1.84-7.91-2.39l-4.42-.55-.55-2.58h25.77l-.37,53.57c0,13.25,6.08,18.59,16.94,18.59,8.83,0,16-4.42,21.53-9.39V159.23c0-5.53-1.28-6.63-7.73-7l-4.78-.55-.56-2.58h26v68.11c0,3.32.55,4.6,3.68,5l9,1.47-.18,2-25.22,5.52Z" transform="translate(-81.41 -102.9)"/><path class="cls-1" d="M949.12,211.51l.92-54.86-14.36-.37.56-3.13,24.66-20.62,2.21.56-.18,16.2h27.24l-2.21,7h-25s-1.29,53.2-1.29,53.38c-.18,8.84,4.6,12.89,12.52,12.89,6.44,0,11.23-3.13,15.65-6.44l1.1,1.84c-6.81,6.63-14.54,12.88-23.56,12.88C957,230.83,948.94,225.86,949.12,211.51Z" transform="translate(-81.41 -102.9)"/><path class="cls-2" d="M1029.94,178.56c-10-2.87-20.25,2.06-22.81,11s3.51,18.53,13.54,21.4a20.84,20.84,0,0,0,4.27.76l-3.58,12.53a1.59,1.59,0,0,0,1.09,2l5.24,1.5a1.6,1.6,0,0,0,2-1.09l4.72-16.5a16,16,0,0,0,9.1-10.17C1046,191,1040,181.44,1029.94,178.56Zm-17,18.33a1.95,1.95,0,0,1-3.75-1.07l3-10.47a1.95,1.95,0,1,1,3.75,1.07Zm20.14,2.45c-3.32-1-5.74-2.7-5.4-3.9s3.32-1.4,6.65-.45,5.74,2.7,5.4,3.9S1036.41,200.29,1033.08,199.34Z" transform="translate(-81.41 -102.9)"/><path class="cls-2" d="M1014.28,270.65l9.07-31.71a1.26,1.26,0,0,0,1.33-.9l2.51-8.76-5.14-1.47-2.51,8.76a1.26,1.26,0,0,0,.65,1.47l-9.74,34C1011.74,271.65,1013,271.17,1014.28,270.65Z" transform="translate(-81.41 -102.9)"/><path class="cls-2" d="M81.82,196.61a16,16,0,0,0,8.62,10.58l3.93,16.71a1.6,1.6,0,0,0,1.92,1.18l5.3-1.25a1.58,1.58,0,0,0,1.18-1.91l-3-12.69a20.77,20.77,0,0,0,4.31-.55c10.16-2.4,16.67-11.68,14.53-20.74s-12.1-14.46-22.27-12.06S79.68,187.56,81.82,196.61ZM110,184.38a2,2,0,0,1,3.8-.89l2.5,10.6a2,2,0,1,1-3.8.89ZM85.62,195.72c-.29-1.22,2.21-2.85,5.58-3.64s6.33-.45,6.62.76-2.21,2.85-5.58,3.64S85.91,196.93,85.62,195.72Z" transform="translate(-81.41 -102.9)"/><path class="cls-2" d="M1014.63,257.77c-1.73,5.5-3.4,11-5.06,16.38-9,29.55-17.55,57.46-33.93,84.48-20.06,33.09-46.36,61.58-76.06,82.38-42.21,29.56-94.1,38.67-144.28,47.48-19.52,3.42-39.7,7-58.83,11.66l-1.5.37c-25.07,6.14-53.48,13.11-74.63,28-13.75,9.68-28.83,31-34,50-8.66-31.26-41.51-49.18-72.06-55.75-21.79-4.68-44.21-8.7-65.88-12.58-60.32-10.81-122.69-22-178.42-48.8-79.11-38.06-137.84-107.69-159.1-188.7l.39.17L106.15,251c-.07-.41-.16-.81-.23-1.22l0,0-2.7-11.47a1.25,1.25,0,0,0,.71-1.43l-2.09-8.87-5.2,1.23,2.09,8.86a1.25,1.25,0,0,0,1.29,1l7.56,32.11.12,0c20.79,83.25,79.6,154.67,160.64,193.65C324.51,492,387.15,503.2,447.72,514.06c21.64,3.88,44,7.89,65.75,12.56,50.85,10.93,70.06,41.16,71.09,65.82l3.94-.17c-.83-20,17.65-48.94,34.11-60.53,20.54-14.46,48.57-21.33,73.3-27.39l1.5-.37c19-4.66,39.12-8.19,58.57-11.61,50.61-8.88,102.94-18.07,145.86-48.13,30.15-21.11,56.84-50,77.18-83.57,16.63-27.44,25.23-55.58,34.33-85.37,1.65-5.41,2-10.85,3.72-16.34Z" transform="translate(-81.41 -102.9)"/><path class="cls-1" d="M252.53,792q-1.36-50.48-1.36-73.13l-.82-1.09,1.09-2.46a48.81,48.81,0,0,0-1.09-10.1l-4.09-1.09a17.1,17.1,0,0,1-5.46.82,58,58,0,0,1-9-1.37,30.52,30.52,0,0,0-8.45-1.36l-3,1.09q0,9.56-.27,17.19t-.27,17.2l.54,1.09q0,7.63.82,22.92.82,15,.82,22.65a10.74,10.74,0,0,1-1.09,5.05,3.52,3.52,0,0,1-3.28,2q-6,0-6-16.37,0-13.92.27-25.1l.28-24.84q0-24.83-.82-26.74,1.36-2.73,1.36-18,0-13.1-1.09-31.93l-.54-10.64-.55-21.29a5.41,5.41,0,0,1,1.36-3.54,4.11,4.11,0,0,1,3.28-1.64q5.46,0,5.46,15.83,0,18.55-.28,33.56-.54,15-.54,33,0,3.27,20.74,3.28h1.09c3.45,0,6-.69,7.5-2s2.32-3.69,2.32-7q0-14.46-1.91-37.66-1.64-25.1-1.63-37.66a3.74,3.74,0,0,1,1.36-2.86,4.72,4.72,0,0,1,3.27-1.23l2.46.82a4.66,4.66,0,0,1,2.46.82q0,21.28,1.63,63.58,1.65,42.57,1.64,63.86,0,32.19,1.91,54l-1.91,3Q260.72,792,252.53,792Zm-9-98.78.54.54h-.54Z" transform="translate(-81.41 -102.9)"/><path class="cls-1" d="M320.07,792.91a30.72,30.72,0,0,1-8.32-6.69q-3.83-4.9-6-27.56T303,706.81c0-4.37-.1-7.64-.28-9.82q-.54-68.5-2.18-81l1.64-3.82q6.27.81,6.28,15l.81,72.31q0,7.65,1.37,28.93,1.63,19.1,1.64,28.92,0,31.11,20.46,31.11,12.56,0,16.1-57.3l.28-5.46q1.91-75,1.91-111.07l-.28-2.45a10.29,10.29,0,0,1-.27-2.46c0-2,1.54-3,4.64-3,2.18,0,3.55.55,4.09,1.64a55.45,55.45,0,0,1,.55,9.55q0,20.74-1.64,27.83l.27,1.64c0,2.37-.27,6-.81,10.92l-.55,10.91v2.73a11.63,11.63,0,0,1,.27,2.73q-.54,6.54-.54,12.55a45.44,45.44,0,0,0-.28,6q-.54,25.92-1.09,45-.81,23.74-6.55,40.12-6,17.46-19.37,17.46A19.28,19.28,0,0,1,320.07,792.91Z" transform="translate(-81.41 -102.9)"/><path class="cls-1" d="M503,788.4v-18q0-39.28-1.63-61.4l-.82-10.09a76.85,76.85,0,0,1-1.09-12c0-6.18.18-11.83.54-16.92l.55-16.92a57.12,57.12,0,0,0-1.09-12.83q-5.47,3.82-33,114.89l-.28,4.09A56.85,56.85,0,0,1,464,770.12a11,11,0,0,1-2.32,4.64,4.54,4.54,0,0,1-3.41,1.64c-2.91,0-5-.73-6.28-2.19s-1.91-3.72-1.91-6.82q0-7.36-7-38.2t-15-59.22q-8.06-28.38-11.06-31.38-.27,9.55-2.18,45-3.82,62.77-3.82,98.79l.27,10.91q-1.1,3.56-5.73,3.55a5.83,5.83,0,0,1-2.73-1.5c-1.27-1-1.91-1.77-1.91-2.32q0-24.56,4.37-86.23,4.09-57.31,4.09-86a7.37,7.37,0,0,0-.54-2.73,6.2,6.2,0,0,1-.82-2.46c0-2.72,2.36-4.09,7.09-4.09,3.1,0,4.92,1.37,5.46,4.09a46,46,0,0,1,1.09,8.19l.28,3.28q1.35,7.1,7.91,21.83a199.45,199.45,0,0,1,7.91,20.46c1.1,4.37,2.09,7.92,3,10.65q4.35,15.82,5.73,23.46l3.54,7.1q.82,4.1,3.28,13.37,2.46,10.38,3.55,16.92A77.27,77.27,0,0,1,458,753.47q3-4.63,17.05-55.8t16.51-65.36a5,5,0,0,0,.41-1.5c.09-.64.23-1.5.41-2.59a107.15,107.15,0,0,1,2.46-10.65q2.17-5.45,6.55-5.45a8.13,8.13,0,0,1,4.36,1.63c1.64,1.1,2.46,2.19,2.46,3.28q0,113.79,3.55,120.34v14.19q-.28,6.29-.28,14.47,0,17.46,1.91,26.19a1.75,1.75,0,0,1,.41.82c.09.36.23.82.41,1.37a10.13,10.13,0,0,1,.28,2.45,11.8,11.8,0,0,1-1.78,6q-1.77,3-4.23,3Q503,805.87,503,788.4ZM499.5,638.59h-.28l-.54.27.82.27Z" transform="translate(-81.41 -102.9)"/><path class="cls-1" d="M604,793.18q-1.1-1-1.64-5-2.46-19.92-3-24.83L598,752.38A61.8,61.8,0,0,0,584.36,751l-9.82-.55a88.17,88.17,0,0,0-9.55-.82c-1.1,0-1.74.46-1.91,1.37,0,.54-.1.82-.28.82l-.54,5.45q-.28,4.92-3,19.65A49.52,49.52,0,0,1,556,788.4c-1.46,3.1-2.82,4.64-4.09,4.64a5.91,5.91,0,0,1-3.55-1.5,4.11,4.11,0,0,1-1.91-3.14l.27-.82.28-.81q4.9-19.38,8.18-38.48l3.28-16.92,3.27-20.74,3-18q1.37-7.36,4.91-23.74,3.82-18.55,4.64-25.38c.18-.55.55-3.91,1.09-10.1q1.1-10.36,1.92-15.28c.54-4.73,1.09-7.46,1.63-8.19h1.91a5.86,5.86,0,0,0,1.91.28,6.7,6.7,0,0,0,4.92-1.64,5.26,5.26,0,0,1,3.41,1.23,3.65,3.65,0,0,1,1.5,2.86,269.29,269.29,0,0,0,1.91,30q1.08,8.73,1.63,14.46,3,35.21,15.29,132.08V790a4.5,4.5,0,0,1-2.19,4.09Q605.1,794.13,604,793.18ZM596.64,745q-2.73-39.28-10.37-116L571.53,701.9q-6.27,31.38-6.27,39.57,0,1.37,10.37,2.45A176.25,176.25,0,0,0,593.91,745Z" transform="translate(-81.41 -102.9)"/><path class="cls-1" d="M707.29,791.13a19.67,19.67,0,0,1-1.77-4.91,11.88,11.88,0,0,0-1.09-3.82l.27-.82q-2.19-12.83-9.28-31.38L690.51,736q-.56-.54-5.18-13.92l-2.19-6.55q-24.55-75.85-30.83-82.14-2.19,7.36-2.19,19.1,0,6.29.28,10.92l.27,10.64-.27,6.55q-.28,3-.28,6.55a83.61,83.61,0,0,0,.55,10.37l.54,8.73h-.81q0,45.59,1.91,50.22V781a12.94,12.94,0,0,1,1.09,5.73,5.55,5.55,0,0,1-1.5,3.82,4.81,4.81,0,0,1-3.69,1.63q-5.73,0-5.73-14.73l.55-8.74a69,69,0,0,0,.54-9q0-13.1-.81-39.3t-.82-39.29q0-7.92.82-24.29.81-16.1.81-24v-3.55q0-13.37,4.92-17.47l.81.82,2.73-.54a5.78,5.78,0,0,1,2.46,1.63,3.43,3.43,0,0,1,1.09,2.46l.55,1.64a4.5,4.5,0,0,0,.27,1.36q4.36,19.38,19.65,54.31,15.56,36.84,19.37,48.84,2.73,9.55,4.37,16.92Q705,762.49,712.07,775l.55-.82q6.27-60.57,6.27-148.72l-.27-3.28a18.79,18.79,0,0,1-.27-3.54q0-5.73,3.82-5.73a5.15,5.15,0,0,1,4.23,2.45,9.13,9.13,0,0,1,1.77,5.46v18.28l-1.37,2.19q0,25.92-3,85.14t-5.73,64.4L713.43,792v.27l-.27-.27-2.73.82A3.35,3.35,0,0,1,707.29,791.13Z" transform="translate(-81.41 -102.9)"/><path class="cls-1" d="M773.74,789a7.12,7.12,0,0,0-2.18.27h-2.19q-6,0-7.64-2.73a3.89,3.89,0,0,1,2.19-3.27l1.36-1.37h7.91l1.1-1.09.54-2.45.27-3.28q0-16.63-.81-29.74l-.55-10.1-.55-19.92q0-10.65.82-31.93l.55-31.65q0-20.75-1.37-31.66a28.84,28.84,0,0,0-8.18-.82l-3,.28a22,22,0,0,1-3.55.27q-5.19,0-5.19-4.64c0-.73.82-1.45,2.46-2.18a10.57,10.57,0,0,1,4.09-1.1,197.38,197.38,0,0,1,20.74,1.1,43.88,43.88,0,0,1,12.55,2.45Q798,617,798,620a6.68,6.68,0,0,1-.82,2.18l-6.28.55q-1.9-1.63-7.91-1.64l-1.37.82q.83,2.46.82,14.46,0,18-.27,32.48l-.55,32.47q0,12.28,1.1,29.75.81,19.92.81,30v3.55a36.37,36.37,0,0,0-.27,4.91q0,6.28.82,7.64l-.27.55q0,2.73,6,2.73a25.74,25.74,0,0,0,4.09-.27H798q7.9,0,7.91,3.82a5.1,5.1,0,0,1-1.64,4,6.16,6.16,0,0,1-4.36,1.5,15.7,15.7,0,0,1-4.37-.54,37.88,37.88,0,0,0-4.64-.27A14.35,14.35,0,0,0,786,790a12.6,12.6,0,0,1-4.91,1.64Q774.83,791.68,773.74,789Z" transform="translate(-81.41 -102.9)"/><path class="cls-1" d="M849.06,787.86l-.28-10.1q-.27-4.37-.27-9.82a33.81,33.81,0,0,1,.27-4.64l.28-4.91a24.78,24.78,0,0,0-1.09-6.55q0-18.29-2.73-68-2.73-48-3-65.22-16.92,0-22.65-.82c-3.64-.91-5.45-2.36-5.45-4.37.91-2,2.63-3,5.18-3q8.19,0,23.74,1.09,14.19,1.36,23.74,1.37h5.74l5.73-.28c3.27,0,4.91,1.19,4.91,3.55a2.87,2.87,0,0,1-1.78,2.59,8.75,8.75,0,0,1-4.23,1q-5.46,0-11.46-.55L854,618.67c-.73,0-1.09.27-1.09.82a25,25,0,0,0-.28,5.18q0,26.48,3.28,80.23,3,55.67,3,80c0,1.27-.77,2.45-2.32,3.54a7.87,7.87,0,0,1-4.5,1.64Z" transform="translate(-81.41 -102.9)"/><path class="cls-1" d="M927.92,794.68a4.83,4.83,0,0,1-1.64-1.91q2.46-6.56,2.46-47.76,0-7.9-.82-22.65L926.56,703l-1.64-3.55.82-3.27q-1.63-3.82-4.91-12.83t-6.55-18.28q-9.82-25.92-12.83-37.39a88.3,88.3,0,0,1-2.45-10.1l3.82-3q2.71.55,7.91,17.47,4.1,12,7.37,23.74l3.27,10.37q4.92,16.92,7.1,17.46l1.09-4.91-.55-1.36q2.19-2.73,5.46-19.38,3.54-19.1,6.82-32.2,3.54-15.27,7.1-15.28a4,4,0,0,1,2.45.82,2.34,2.34,0,0,1,1.09,1.91q0,4.1-8.18,32.2-4.1,13.38-6.82,25.11a109.3,109.3,0,0,0-3.28,24.83A10.86,10.86,0,0,1,935,700a13.31,13.31,0,0,1-.82,3.82,13.3,13.3,0,0,0-.82,4.09q0,1.36,1.09,12.28a87.42,87.42,0,0,1,1.09,12.55q0,12,.27,21.56v22.92q0,18.57-5.73,18.56A4.07,4.07,0,0,1,927.92,794.68Z" transform="translate(-81.41 -102.9)"/></svg>