<svg id="Layer_1" data-name="Layer 1" xmlns="http://www.w3.org/2000/svg" viewBox="0 0 792.62 498.06"><defs><style>.cls-1{fill:#fff;}.cls-2{fill:snow;}</style></defs><path class="cls-1" d="M784.27,35.69c-8.66-5.85-19.89-4.33-25.1,3.38s-2.42,18.7,6.23,24.54a20.55,20.55,0,0,0,3.83,2l-7.3,10.8a1.59,1.59,0,0,0,.43,2.21l4.51,3a1.59,1.59,0,0,0,2.21-.43l9.61-14.22a16,16,0,0,0,11.81-6.84C795.71,52.52,792.92,41.53,784.27,35.69ZM762.42,47.84a2,2,0,0,1-3.24-2.19l6.1-9a2,2,0,0,1,3.24,2.18Zm18.38,8.57c-2.86-1.93-4.62-4.34-3.92-5.38s3.59-.3,6.45,1.64S788,57,787.26,58.05,783.67,58.35,780.8,56.41Z" transform="translate(-0.5 -32.13)"/><path class="cls-2" d="M761.42,80.06l-5.17,7.72a1.3,1.3,0,0,0,.17,1.64c.36.35-16,24.67-17.57,27.27a208.11,208.11,0,0,0-14.3,28.71A191.41,191.41,0,0,0,711,210.46c-.27,9.72.16,19.8.58,29.54,1.14,26.35,2.32,53.6-10.55,76.09-23.11,40.38-76.23,45.78-130.28,45.65-105.59-.3-212.42,4.7-317.53,14.85-31,3-61.13,6.43-89.89,15.64-21.35,6.84-41.77,16.84-61.51,26.51-24,11.76-48.79,23.91-68,43.58-16,16.33-26.46,36.1-33.31,57.17v10.7C7,505.9,17.94,482.91,36,464.48c18.88-19.3,43.44-31.33,67.19-43,19.65-9.63,40-19.59,61.11-26.35,28.48-9.12,58.47-12.54,89.26-15.52,105-10.14,211.74-15.12,317.23-14.83,23.55.07,50.93-.74,75.34-7.2,27.52-7.28,46.35-20.36,57.58-40,13.32-23.27,12.12-51,11-77.77-.42-9.68-.85-19.7-.58-29.31a188.9,188.9,0,0,1,32.55-100.26l-.09-.07L759.18,91.3a1.26,1.26,0,0,0,1.56-.46l5.17-7.72Z" transform="translate(-0.5 -32.13)"/></svg>