<svg id="Layer_2" data-name="Layer 2" xmlns="http://www.w3.org/2000/svg" viewBox="0 0 84.54 247"><defs><style>.cls-1{fill:#fff;}.cls-2{fill:#bbbdbf;}</style></defs><path class="cls-1" d="M448.73,163.4c-10.44.25-18.72,8-18.5,17.3s8.86,16.64,19.3,16.39a20.08,20.08,0,0,0,4.3-.55l.31,13a1.6,1.6,0,0,0,1.63,1.56l5.45-.13a1.59,1.59,0,0,0,1.55-1.63l-.41-17.16A16,16,0,0,0,468,179.8C467.81,170.5,459.17,163.15,448.73,163.4ZM438,186a2,2,0,1,1-3.9.09l-.26-10.89a2,2,0,0,1,3.9-.09Zm20-3.66c-3.46.08-6.29-.86-6.32-2.11s2.75-2.33,6.21-2.41,6.29.86,6.32,2.11S461.38,182.22,457.92,182.3Z" transform="translate(-430.23 -163.4)"/><path class="cls-1" d="M460.42,223a1.25,1.25,0,0,0,1-1.25l-.22-9.11-5.34.13.22,9.1a1.25,1.25,0,0,0,1.06,1.21c.51,21.86.5,43.73.5,65.59V410.4H461v-141C461,253.93,460.79,238.49,460.42,223Z" transform="translate(-430.23 -163.4)"/><path class="cls-1" d="M477,179.8a16,16,0,0,0,5.67,12.41l-.41,17.16a1.59,1.59,0,0,0,1.55,1.63l5.45.13a1.6,1.6,0,0,0,1.63-1.56l.31-13a20.08,20.08,0,0,0,4.3.55c10.44.25,19.08-7.09,19.3-16.39s-8.06-17-18.5-17.3S477.19,170.5,477,179.8Zm30.33-4.73a2,2,0,0,1,3.9.09l-.26,10.89A2,2,0,1,1,507,186Zm-26.43,4.82c0-1.25,2.86-2.19,6.32-2.11s6.24,1.16,6.21,2.41-2.86,2.19-6.32,2.11S480.84,181.14,480.87,179.89Z" transform="translate(-430.23 -163.4)"/><path class="cls-1" d="M484.58,223a1.25,1.25,0,0,1-1-1.25l.22-9.11,5.34.13-.22,9.1a1.25,1.25,0,0,1-1.06,1.21c-.51,21.86-.5,43.73-.5,65.59V410.4H484v-141C484,253.93,484.21,238.49,484.58,223Z" transform="translate(-430.23 -163.4)"/><path class="cls-2" d="M461.89,374.82a2.25,2.25,0,0,1-2.25,2.25h0a2.24,2.24,0,0,1-2.24-2.25v-6.49a2.24,2.24,0,0,1,2.24-2.24h0a2.24,2.24,0,0,1,2.25,2.24Z" transform="translate(-430.23 -163.4)"/><path class="cls-2" d="M461.89,312.64a2.25,2.25,0,0,1-2.25,2.25h0a2.24,2.24,0,0,1-2.24-2.25v-6.49a2.24,2.24,0,0,1,2.24-2.24h0a2.24,2.24,0,0,1,2.25,2.24Z" transform="translate(-430.23 -163.4)"/><rect class="cls-1" x="23.57" y="147.69" width="11.69" height="58.8" rx="5.31"/><path class="cls-2" d="M464.66,352.87c0,1.51-2,2.73-4.56,2.73h-.91c-2.52,0-4.57-1.22-4.57-2.73V328.11c0-1.51,2.05-2.74,4.57-2.74h.91c2.52,0,4.56,1.23,4.56,2.74Z" transform="translate(-430.23 -163.4)"/></svg>